<svg width="184" height="75" viewBox="0 0 184 75" fill="none" xmlns="http://www.w3.org/2000/svg">
<path d="M10.6011 22.4561H16.1137L26.3906 53.1461H20.7993L18.2006 45.4952H8.43549L5.87609 53.1461H0.28479L10.6011 22.4561ZM17.2162 41.3023L13.3574 28.6373L9.34112 41.3023H17.2162Z" fill="white"/>
<path d="M32.3708 22.4561L39.3008 33.7811L46.1915 22.4561H52.0978L42.4115 38.0172L51.7828 53.1461H45.8765L39.3008 42.2533L32.6858 53.1461H26.7401L36.1114 38.0172L26.4251 22.4561H32.3708Z" fill="white"/>
<path d="M54.9126 53.1461V22.4561H60.3464V53.1461H54.9126Z" fill="#EC7979"/>
<path d="M87.0875 27.6863H78.1493V53.1461H72.7549V27.6863H63.8167V22.4561H87.0875V27.6863Z" fill="#EC7979"/>
</svg>
