<svg width="270" height="100" viewBox="0 0 270 100" fill="none" xmlns="http://www.w3.org/2000/svg">
<path d="M20.3089 23H31.161L51.3924 78H40.3853L35.2693 64.2887H16.0456L11.0071 78H0L20.3089 23ZM33.3314 56.7747L25.735 34.0775L17.8284 56.7747H33.3314Z" fill="white"/>
<path d="M63.165 23L76.8076 43.2958L90.3728 23H102L82.9313 50.8873L101.38 78H89.7526L76.8076 58.4789L63.7851 78H52.0804L70.5289 50.8873L51.4602 23H63.165Z" fill="white"/>
<path d="M107 78V23H117.64V78H107Z" fill="#EC7979"/>
<path d="M170 32.3732H152.499V78H141.936V32.3732H124.435V23H170V32.3732Z" fill="#EC7979"/>
</svg>
