<svg width="41" height="41" viewBox="0 0 41 41" fill="none" xmlns="http://www.w3.org/2000/svg">
<path d="M38.3334 0.649902H2.86669C2.27879 0.649902 1.71498 0.883443 1.29927 1.29915C0.883565 1.71485 0.650024 2.27867 0.650024 2.86657V38.3332C0.650024 38.9211 0.883565 39.4849 1.29927 39.9007C1.71498 40.3164 2.27879 40.5499 2.86669 40.5499H38.3334C38.9212 40.5499 39.4851 40.3164 39.9008 39.9007C40.3165 39.4849 40.55 38.9211 40.55 38.3332V2.86657C40.55 2.27867 40.3165 1.71485 39.9008 1.29915C39.4851 0.883443 38.9212 0.649902 38.3334 0.649902ZM12.4848 34.6469H6.56187V15.6058H12.4848V34.6469ZM9.52334 13.0056C8.61328 13.0056 7.74049 12.6441 7.09697 12.0006C6.45346 11.3571 6.09194 10.4843 6.09194 9.5742C6.09194 8.66414 6.45346 7.79135 7.09697 7.14784C7.74049 6.50432 8.61328 6.1428 9.52334 6.1428C10.4334 6.1428 11.3062 6.50432 11.9497 7.14784C12.5932 7.79135 12.9547 8.66414 12.9547 9.5742C12.9547 10.4843 12.5932 11.3571 11.9497 12.0006C11.3062 12.6441 10.4334 13.0056 9.52334 13.0056ZM34.6493 34.6469H28.733V25.3879C28.733 23.1801 28.6931 20.3406 25.6562 20.3406C22.5751 20.3406 22.1074 22.7479 22.1074 25.2327V34.6491H16.1955V15.608H21.8702V18.2103H21.9522C22.7391 16.7141 24.672 15.1358 27.5471 15.1358C33.5409 15.1358 34.647 19.0771 34.647 24.2064V34.6469H34.6493Z" fill="#CCCCCC"/>
</svg>
