<svg width="44" height="37" viewBox="0 0 44 37" fill="none" xmlns="http://www.w3.org/2000/svg">
<path d="M39.5198 9.72684C39.5486 10.1148 39.5486 10.5005 39.5486 10.8862C39.5486 22.6899 30.5644 36.2914 14.1456 36.2914C9.08715 36.2914 4.38782 34.8262 0.433289 32.2814C1.15149 32.3634 1.84309 32.3923 2.59011 32.3923C6.6089 32.402 10.5139 31.0581 13.6757 28.5774C11.8124 28.5436 10.0061 27.9289 8.50913 26.819C7.01213 25.709 5.89911 24.1593 5.32547 22.3862C5.87742 22.4682 6.43159 22.5237 7.01235 22.5237C7.81257 22.5237 8.61722 22.4128 9.36424 22.22C7.34211 21.8117 5.5238 20.7156 4.21851 19.1182C2.91321 17.5207 2.20151 15.5204 2.20441 13.4575V13.3467C3.39476 14.0094 4.77574 14.424 6.23874 14.4794C5.01312 13.6649 4.00815 12.5598 3.31349 11.2625C2.61883 9.96526 2.25608 8.51622 2.2576 7.04467C2.2576 5.3866 2.69872 3.86597 3.47234 2.5404C5.71591 5.3002 8.51415 7.55796 11.6858 9.16748C14.8575 10.777 18.3319 11.7024 21.884 11.8837C21.7465 11.2187 21.6623 10.5293 21.6623 9.83767C21.6617 8.66497 21.8923 7.50365 22.3408 6.4201C22.7893 5.33656 23.4469 4.35203 24.2762 3.5228C25.1054 2.69358 26.0899 2.03591 27.1735 1.58741C28.257 1.13891 29.4183 0.908354 30.591 0.908937C33.1624 0.908937 35.4832 1.98624 37.1147 3.72854C39.1136 3.34199 41.0305 2.61227 42.7805 1.57172C42.1142 3.63503 40.7185 5.38462 38.8548 6.49272C40.6276 6.29051 42.3603 5.82429 43.9952 5.10952C42.7741 6.88972 41.261 8.4508 39.5198 9.72684Z" fill="#CCCCCC"/>
</svg>
