<svg width="45" height="44" viewBox="0 0 45 44" fill="none" xmlns="http://www.w3.org/2000/svg">
<path fill-rule="evenodd" clip-rule="evenodd" d="M22.6573 0.43335C10.4457 0.43335 0.548248 10.3308 0.548248 22.5424C0.548248 32.309 6.88127 40.5971 15.6681 43.5231C16.7743 43.7226 17.1733 43.0421 17.1733 42.4569C17.1733 41.9316 17.1555 40.5395 17.1489 38.6974C10.9976 40.0319 9.69865 35.7315 9.69865 35.7315C8.69672 33.1779 7.2448 32.4974 7.2448 32.4974C5.23872 31.1253 7.39775 31.1563 7.39775 31.1563C9.61885 31.3115 10.7826 33.4351 10.7826 33.4351C12.7554 36.8133 15.9607 35.8379 17.2154 35.2727C17.4171 33.8429 17.9934 32.8676 18.623 32.3157C13.7153 31.7593 8.55485 29.8618 8.55485 21.3875C8.55485 18.978 9.41713 17.0007 10.8247 15.4579C10.6008 14.8971 9.83608 12.6472 11.0442 9.60592C11.0442 9.60592 12.8995 9.00963 17.1223 11.8691C18.9257 11.3785 20.7861 11.1281 22.6551 11.1243C24.5241 11.1274 26.3845 11.3778 28.1879 11.8691C32.4128 9.00742 34.266 9.60592 34.266 9.60592C35.4741 12.6472 34.716 14.8971 34.4854 15.4579C35.9041 17.0007 36.7553 18.9758 36.7553 21.3875C36.7553 29.884 31.5905 31.7504 26.665 32.2979C27.4519 32.9807 28.1613 34.3284 28.1613 36.3899C28.1613 39.3469 28.1347 41.7321 28.1347 42.4569C28.1347 43.0488 28.5292 43.7359 29.6575 43.5187C38.44 40.5883 44.7663 32.3068 44.7663 22.5424C44.7663 10.3308 34.8689 0.43335 22.6573 0.43335Z" fill="#CCCCCC"/>
</svg>
