<svg width="45" height="45" viewBox="0 0 45 45" fill="none" xmlns="http://www.w3.org/2000/svg">
<path d="M16.0386 43.747C18.1666 44.3899 20.3168 44.7667 22.6 44.7667C28.4789 44.7667 34.1171 42.4313 38.2742 38.2742C42.4312 34.1172 44.7666 28.479 44.7666 22.6C44.7666 19.689 44.1933 16.8066 43.0793 14.1172C41.9653 11.4278 40.3325 8.98418 38.2742 6.92582C36.2158 4.86745 33.7722 3.23467 31.0828 2.12069C28.3934 1.00671 25.5109 0.43335 22.6 0.43335C19.689 0.43335 16.8065 1.00671 14.1171 2.12069C11.4278 3.23467 8.98412 4.86745 6.92576 6.92582C2.7687 11.0829 0.433289 16.7211 0.433289 22.6C0.433289 32.0208 6.35179 40.1117 14.7086 43.3037C14.5091 41.5747 14.3096 38.7152 14.7086 36.7423L17.2578 25.792C17.2578 25.792 16.615 24.5063 16.615 22.467C16.615 19.408 18.5213 17.1248 20.6936 17.1248C22.6 17.1248 23.4866 18.5214 23.4866 20.3169C23.4866 22.2232 22.2231 24.9497 21.5803 27.5653C21.2035 29.7377 22.733 31.644 24.9496 31.644C28.8953 31.644 31.9543 27.4324 31.9543 21.4917C31.9543 16.1717 28.1416 12.5364 22.6665 12.5364C16.4155 12.5364 12.7358 17.1914 12.7358 22.0902C12.7358 23.9965 13.3565 25.925 14.3761 27.1885C14.5756 27.3215 14.5756 27.4988 14.5091 27.8313L13.8663 30.2475C13.8663 30.6243 13.6225 30.7574 13.2456 30.4914C10.4083 29.25 8.76796 25.2157 8.76796 21.9572C8.76796 14.9525 13.7333 8.59068 23.3093 8.59068C30.9346 8.59068 36.8753 14.0659 36.8753 21.3365C36.8753 28.9619 32.1538 35.0798 25.393 35.0798C23.2428 35.0798 21.137 33.9272 20.3833 32.575L18.8981 37.8285C18.3883 39.7349 16.9918 42.284 16.0386 43.8135V43.747Z" fill="#CCCCCC"/>
</svg>
