<svg width="41" height="41" viewBox="0 0 41 41" fill="none" xmlns="http://www.w3.org/2000/svg">
<path d="M40.4326 12.4094C40.4102 10.7306 40.096 9.06843 39.5038 7.49731C38.9903 6.17208 38.206 4.96853 37.2011 3.96357C36.1961 2.9586 34.9926 2.17432 33.6673 1.66083C32.1164 1.07864 30.4779 0.763833 28.8217 0.729827C26.6893 0.63451 26.0132 0.60791 20.6001 0.60791C15.187 0.60791 14.4932 0.60791 12.3763 0.729827C10.7208 0.764083 9.08305 1.07888 7.53283 1.66083C6.20739 2.17396 5.00366 2.95812 3.99865 3.96313C2.99364 4.96814 2.20948 6.17187 1.69635 7.49731C1.11299 9.04705 0.798872 10.6851 0.767566 12.3407C0.672249 14.4754 0.643433 15.1515 0.643433 20.5646C0.643433 25.9777 0.643433 26.6693 0.767566 28.7884C0.800816 30.4465 1.11337 32.0824 1.69635 33.6362C2.21034 34.9613 2.99509 36.1645 4.00043 37.1691C5.00578 38.1737 6.20962 38.9575 7.53505 39.4705C9.08103 40.0761 10.719 40.4134 12.3785 40.468C14.5131 40.5633 15.1892 40.5921 20.6023 40.5921C26.0154 40.5921 26.7092 40.5921 28.8261 40.468C30.4823 40.4354 32.1209 40.1213 33.6718 39.5392C34.9967 39.0251 36.1999 38.2407 37.2048 37.2358C38.2097 36.2309 38.9942 35.0276 39.5083 33.7027C40.0912 32.1511 40.4038 30.5152 40.437 28.8549C40.5323 26.7225 40.5612 26.0464 40.5612 20.6311C40.5567 15.218 40.5567 14.5308 40.4326 12.4094ZM20.5868 30.8011C14.9254 30.8011 10.3391 26.2148 10.3391 20.5535C10.3391 14.8921 14.9254 10.3058 20.5868 10.3058C23.3046 10.3058 25.9112 11.3855 27.833 13.3073C29.7548 15.2291 30.8344 17.8356 30.8344 20.5535C30.8344 23.2713 29.7548 25.8779 27.833 27.7997C25.9112 29.7215 23.3046 30.8011 20.5868 30.8011ZM31.2423 12.3163C30.9284 12.3166 30.6176 12.255 30.3275 12.135C30.0375 12.0151 29.7739 11.8391 29.552 11.6171C29.33 11.3952 29.154 11.1316 29.034 10.8416C28.914 10.5515 28.8524 10.2407 28.8527 9.92678C28.8527 9.61312 28.9145 9.30254 29.0345 9.01275C29.1546 8.72297 29.3305 8.45967 29.5523 8.23788C29.7741 8.01609 30.0374 7.84016 30.3272 7.72013C30.617 7.6001 30.9275 7.53832 31.2412 7.53832C31.5549 7.53832 31.8654 7.6001 32.1552 7.72013C32.445 7.84016 32.7083 8.01609 32.9301 8.23788C33.1519 8.45967 33.3278 8.72297 33.4478 9.01275C33.5679 9.30254 33.6297 9.61312 33.6297 9.92678C33.6297 11.2479 32.5612 12.3163 31.2423 12.3163Z" fill="#CCCCCC"/>
</svg>
